<svg height='100px' width='100px'  fill="#ffffff" xmlns="http://www.w3.org/2000/svg" xmlns:xlink="http://www.w3.org/1999/xlink" version="1.1" x="0px" y="0px" viewBox="0 0 64 64" style="enable-background:new 0 0 64 64;" xml:space="preserve"><path d="M14,15h6c0.6,0,1-0.4,1-1c0-0.5,0.2-1,0.6-1.4c0.4-0.4,1-0.6,1.6-0.6c1,0.1,1.8,1,1.8,2.2V20c0,1.3,0.8,2.4,2,2.8V60  c0,1.7,1.3,3,3,3h4c1.7,0,3-1.3,3-3V22.8c1.2-0.4,2-1.5,2-2.8v-5.4c0-0.6,0.3-1.2,0.8-1.6c0.5-0.4,1.2-0.5,1.8-0.3  c3.7,1,7.1,3.1,9.7,6c0.3,0.3,0.7,0.4,1.1,0.3c0.4-0.1,0.6-0.5,0.6-0.9c0-4.5-1.8-8.8-5-12c-3.2-3.2-7.5-5-12-5H26c-0.6,0-1,0.4-1,1  c0,0.5-0.2,1-0.6,1.4c-0.8,0.8-2.1,0.8-2.8,0C21.2,3,21,2.5,21,2c0-0.6-0.4-1-1-1h-6c-1.7,0-3,1.3-3,3v8C11,13.7,12.3,15,14,15z   M35,60c0,0.6-0.4,1-1,1h-4c-0.6,0-1-0.4-1-1V23h6V60z M13,4c0-0.6,0.4-1,1-1h5.1c0.2,0.7,0.5,1.3,1,1.8c1.5,1.5,4.1,1.5,5.7,0  c0.5-0.5,0.9-1.1,1-1.8H36c4,0,7.8,1.6,10.6,4.4c2.2,2.2,3.6,5,4.2,8c-2.5-2.2-5.5-3.8-8.7-4.7c-1.2-0.3-2.5-0.1-3.5,0.7  c-1,0.8-1.6,1.9-1.6,3.2V20c0,0.6-0.4,1-1,1h-8c-0.6,0-1-0.4-1-1v-5.8c0-2.2-1.6-4-3.7-4.2c-0.1,0-0.2,0-0.3,0  c-1.1,0-2.1,0.4-2.8,1.2c-0.5,0.5-0.9,1.1-1,1.8H14c-0.6,0-1-0.4-1-1V4z"></path></svg>