<svg height='100px' width='100px'  fill="#ffffff" xmlns="http://www.w3.org/2000/svg" xmlns:xlink="http://www.w3.org/1999/xlink" version="1.1" x="0px" y="0px" viewBox="-55 147 500 500" style="enable-background:new -55 147 500 500;" xml:space="preserve"><g><path d="M59.7,547c-0.3,1.1-0.3,4.1,0,7.5c2-0.2,3.6-0.5,4.2-0.6c2.4-0.8,5.1-0.2,7,1.5c2,1.8,2.9,4.5,2.3,7.2   c-0.2,1.1,0.3,4.1,1.1,7.4c1.9-0.5,3.4-1,4.1-1.3c2.3-1.1,5-1,7.2,0.3c2.3,1.5,3.6,4,3.4,6.8c0,1.1,0.9,4,2.3,7.2   c1.8-0.8,3.2-1.6,3.8-1.9c2.1-1.5,4.8-1.8,7.1-0.8c2.5,1.1,4.2,3.4,4.4,6.1c0.2,1.1,1.5,3.8,3.4,6.7c1.6-1.1,2.9-2,3.5-2.5   c1.8-1.8,4.4-2.5,6.9-1.9c2.6,0.7,4.7,2.7,5.3,5.4c0.4,1.1,2.1,3.5,4.4,6.1c1.4-1.3,2.6-2.4,3-2.9c1.5-2.1,4-3.2,6.5-3   c2.7,0.2,5.1,1.9,6.1,4.5c0.5,1,2.6,3.1,5.3,5.3c1.2-1.6,2.2-2.8,2.5-3.4c1.2-2.3,3.4-3.8,6-4c2.7-0.2,5.3,1.1,6.7,3.5   c0.7,0.9,3.1,2.7,6,4.4c0.9-1.7,1.7-3.1,2-3.8c0.8-2.4,2.8-4.3,5.3-4.9c2.7-0.6,5.4,0.3,7.2,2.4c0.8,0.8,3.5,2.1,6.7,3.4   c0.7-1.9,1.2-3.4,1.4-4c0.4-2.5,2.1-4.7,4.5-5.6c2.5-1,5.4-0.6,7.4,1.2c0.9,0.7,3.8,1.6,7.1,2.4c0.4-1.9,0.6-3.5,0.7-4.2   c0-2.6,1.3-4.9,3.6-6.3c2.3-1.4,5.2-1.4,7.5,0c1,0.5,3.9,1,7.4,1.2c0.1-2,0.1-3.6,0.1-4.2c-0.4-2.5,0.5-5.1,2.5-6.7   c2.1-1.8,4.9-2.2,7.5-1.2c1.1,0.3,4,0.3,7.5,0c-0.2-2-0.5-3.5-0.6-4.2c-0.8-2.4-0.3-5.1,1.4-7.1c1.8-2.1,4.5-3,7.2-2.3   c1.1,0.2,4-0.3,7.4-1.1c-0.5-1.9-1-3.4-1.3-4.1c-1.1-2.3-1-5,0.3-7.2c1.5-2.3,4-3.6,6.7-3.4c1.1,0,4-0.9,7.1-2.3   c-0.1-0.2-0.2-0.4-0.3-0.7h16.1c0.2,0.4,0.4,0.8,0.5,1.2c1.6,3.5,0.1,7.7-3.3,9.5c-2.4,1.3-6.8,3.5-11.3,5.1c0.4,1.4,0.8,3.1,1.3,5   c1,3.7-1.1,7.6-4.7,8.9c-2.5,0.9-7.2,2.4-12,3.2c0.2,1.5,0.4,3.1,0.6,5.1c0.4,3.8-2.2,7.3-6,8c-2.7,0.5-7.5,1.2-12.3,1.3   c-0.1,1.5-0.1,3.2-0.3,5.1c-0.2,3.9-3.3,6.9-7.2,7c-2.7,0.1-7.6,0-12.4-0.6c-0.3,1.4-0.6,3.1-1,5c-0.8,3.8-4.4,6.3-8.2,5.8   c-2.7-0.4-7.5-1.2-12.1-2.6c-0.5,1.4-1.1,3-1.8,4.8c-1.4,3.6-5.3,5.5-9,4.4c-2.6-0.8-7.2-2.3-11.6-4.4c-0.7,1.3-1.6,2.8-2.5,4.5   c-1.4,2.3-3.8,3.7-6.3,3.7c-1.1,0-2.2-0.2-3.2-0.7c-2.4-1.2-6.8-3.4-10.8-6.2c-0.9,1.1-2,2.5-3.2,4c-2.4,3-6.7,3.6-9.9,1.4   c-2.2-1.6-6.2-4.5-9.6-7.8c-1.1,1-2.3,2.1-3.8,3.5c-2.9,2.6-7.2,2.5-10-0.2c-1.9-1.9-5.4-5.4-8.3-9.2c-1.2,0.8-2.6,1.8-4.3,2.8   c-3.2,2.1-7.5,1.3-9.8-1.7c-1.6-2.2-4.5-6.2-6.8-10.4c-1.3,0.6-2.9,1.3-4.7,2.1c-3.5,1.6-7.6,0.1-9.4-3.3   c-1.3-2.4-3.5-6.8-5.1-11.4c-1.4,0.4-3,0.8-5,1.3c-3.7,1-7.5-1.1-8.8-4.7c-0.9-2.6-2.4-7.3-3.2-12c-1.5,0.2-3.1,0.4-5.1,0.6   c-3.8,0.4-7.3-2.2-8-6c-0.5-2.7-1.2-7.6-1.3-12.4c-1.5-0.1-3.1-0.1-5.1-0.3c-3.8-0.2-6.9-3.4-6.9-7.2c0-0.6,0-1.3,0-2.1h27.2   C60.4,543.6,60.3,545.4,59.7,547z"></path><path d="M164.9,435.9c-17.9,0-32.6,14.7-32.6,32.7s14.6,32.7,32.6,32.7c17.9,0,32.5-14.7,32.5-32.7S182.8,435.9,164.9,435.9z    M164.9,450.7c9.9,0,17.9,8.1,17.9,18s-8,18-17.9,18s-17.9-8.1-17.9-18C147,458.7,155,450.7,164.9,450.7z"></path><path d="M356.1,463.9h31.2c1.9,0,3.8-0.8,5.2-2.2c24.7-24.8,28.1-56.1,10.3-83.4l28.8-29.7c8.7-9,13.5-20.9,13.3-33.5   c-0.2-12.6-5.2-24.4-14.1-33.2l-82.5-81c-18.5-18.2-48.3-17.8-66.4,0.8L253,231.4c-10-4.7-21-7.2-32.4-7.2   c-20.3,0-39.4,8-53.8,22.4L135,278.7c-7.4,1.2-14.7,2.8-21.9,4.8v-15.6c0-1.6,0-3.2-0.1-4.9h6c13.7,0,24.9-11.2,24.9-25.1v-14   c0-12.7-8.1-23.7-20.1-27.5l-74.9-23.3c-7.3-2.3-15.2-1.1-21.5,3.3c-6.1,4.2-9.9,10.8-10.4,18.2c0,0.6-0.1,1.1-0.1,1.7V238   c0,13.8,11.2,25.1,24.9,25.1h3.4c-0.1,1.6-0.1,3.2-0.1,4.9v51c-43.5,35.3-71.4,89.3-71.4,149.7c0,4.1,3.3,7.4,7.3,7.4h31.9   c-1.4,3.4-0.1,7.3,3.1,9.2c1.7,1,3.2,1.8,4.5,2.6c-2.1,4.4-3.6,9-4.4,11.6c-1,3.2,0.3,6.5,3,8.3h23.2c0.4-1.5,0.3-3.1-0.3-4.6   c-0.9-2.4-3.1-4.1-5.6-4.5c-0.6-0.2-2.2-0.7-4-1.4c1.3-3.2,2.6-5.9,3.4-6.7c2.1-1.8,2.9-4.5,2.3-7.2c-0.6-2.5-2.4-4.5-4.8-5.3   c-0.6-0.3-2-1-3.6-1.9h51.7c4,0,7.3-3.3,7.3-7.4c0-42.3,34.2-76.6,76.3-76.6c42,0,76.3,34.4,76.3,76.6c0,4.1,3.3,7.4,7.3,7.4h44.3   c0.6,1.8,1.9,3.3,3.5,4.2c0.6,0.4,1.8,1.3,3.4,2.5c-2.2,2.7-4.3,4.8-5.3,5.3c-2.5,1.1-4.2,3.4-4.4,6.1c-0.2,2.6,0.9,5,3,6.6   c0.5,0.5,1.6,1.6,2.9,3c-2,1.7-3.8,3.2-5.1,3.9h21.7c1.5-2.7,1.2-6.1-0.9-8.5c-1.3-1.5-2.5-2.7-3.4-3.8c3.3-3.5,6.2-7.5,7.8-9.7   c2.1-3.1,1.6-7.2-1.1-9.7h34c4,0,7.3-3.3,7.3-7.4C356.2,467,356.1,465.5,356.1,463.9z M41.8,248.3c-5.7,0-10.3-4.6-10.3-10.3v-41.7   c0-0.2,0-0.5,0-0.7c0.3-3.8,2.7-6,4.1-7c1.8-1.2,3.8-1.8,5.9-1.8c1,0,2.1,0.2,3.1,0.5l74.9,23.3c5.9,1.8,9.8,7.2,9.8,13.4v14   c0,5.7-4.6,10.3-10.3,10.3H41.8z M59.8,263.1h38.5c0.1,1.6,0.1,3.2,0.1,4.9v20.4c-13.7,5.1-26.7,11.8-38.7,19.8V268   C59.7,266.2,59.7,264.6,59.8,263.1z M164.9,291.1c94.9,0,172.6,75.7,176.4,170.1h-85.8c-3.7-47-43-84-90.6-84   c-47.7,0-86.9,37.1-90.6,84h-85.9C-7.7,366.8,70,291.1,164.9,291.1z M393.7,366.6c-0.8-0.9-1.7-1.8-2.6-2.7L373,345.7l24.1-24.8   c2.8-2.9,2.8-7.6-0.1-10.4l-76.2-74.8c-1.4-1.4-3.3-2.1-5.2-2.1c-1.9,0-3.8,0.8-5.2,2.2l-23.1,23.8l-12.8-12.9   c-2.7-2.7-5.5-5.1-8.5-7.4l26.5-27.2c6.3-6.5,14.7-9.8,23.1-9.8c8.1,0,16.3,3.1,22.5,9.2l82.5,81c6.2,6,9.6,14.1,9.7,22.8   c0.1,8.7-3.1,16.9-9.2,23L393.7,366.6z M315.8,251.4l65.8,64.5l-18.8,19.4l-65-65.3L315.8,251.4z M355.2,449.2   c-9.7-96.9-91.4-172.8-190.3-172.8c-2.3,0-4.7,0.1-7,0.1l19.3-19.4c11.6-11.7,27-18.1,43.4-18.1s31.8,6.4,43.4,18.1l116.7,117.3   c23.7,23.8,24.9,51.6,3.4,74.8H355.2z"></path><path d="M-47.7,516.6h424.9c4,0,7.3,3.3,7.3,7.4s-3.3,7.4-7.3,7.4H-47.7c-4,0-7.3-3.3-7.3-7.4S-51.7,516.6-47.7,516.6z"></path></g></svg>