<svg height='100px' width='100px'  fill="#ffffff" xmlns="http://www.w3.org/2000/svg" data-name="Layer 1" viewBox="0 0 100 100" x="0px" y="0px"><title>36</title><path d="M77.64648,5h-55.293A12.92826,12.92826,0,0,0,9.43945,17.91357v42.44A12.92826,12.92826,0,0,0,22.35352,73.26709H54.08887L74.918,94.40381a1.99975,1.99975,0,0,0,3.416-1.58692l-1.79589-19.5498h1.10839A12.92826,12.92826,0,0,0,90.56055,60.35352v-42.44A12.92826,12.92826,0,0,0,77.64648,5Zm8.91407,55.35352a8.924,8.924,0,0,1-8.91407,8.91357H74.3457a1.99909,1.99909,0,0,0-1.99121,2.18311l1.48438,16.15966L56.35059,69.86328a2.00174,2.00174,0,0,0-1.42481-.59619H22.35352a8.924,8.924,0,0,1-8.91407-8.91357v-42.44A8.924,8.924,0,0,1,22.35352,9h55.293a8.924,8.924,0,0,1,8.91407,8.91357ZM53.87817,36.574V55.83716a3.87817,3.87817,0,0,1-7.75634,0V36.574a3.87817,3.87817,0,1,1,7.75634,0Zm0-14.14386A3.87817,3.87817,0,1,1,50,18.552,3.87813,3.87813,0,0,1,53.87817,22.43018Z"></path></svg>