<svg height='100px' width='100px'  fill="#ffffff" xmlns="http://www.w3.org/2000/svg" xmlns:xlink="http://www.w3.org/1999/xlink" version="1.1" x="0px" y="0px" viewBox="-55 147 500 500" style="enable-background:new -55 147 500 500;" xml:space="preserve"><g><path d="M438.9,177h-173c-3.4,0-6.1,2.7-6.1,6.1v227.6h-58.7v-11.2h4.9c3.4,0,6.1-2.7,6.1-6.1c0-3.4-2.7-6.1-6.1-6.1h-4.9v-4.5   c0-8.1,6.6-14.6,14.7-14.6s14.7,6.6,14.7,14.6c0,3.4,2.7,6.1,6.1,6.1s6.1-2.7,6.1-6.1c0-14.8-12.1-26.8-26.9-26.8   s-26.9,12-26.9,26.8v4.5h-7.3c-3.4,0-6.1,2.7-6.1,6.1c0,3.4,2.7,6.1,6.1,6.1h7.3v11.2H-48.9c-3.4,0-6.1,2.7-6.1,6.1V572v38.9   c0,3.4,2.7,6.1,6.1,6.1h487.8c3.4,0,6.1-2.7,6.1-6.1V572V183.1C445,179.7,442.3,177,438.9,177z M272,422.9h160.8v143H272V422.9z    M432.8,189.2v221.5H272V189.2H432.8z M259.8,565.9h-134v-143h134V565.9z M-42.8,565.9v-95h156.3v95H-42.8z M113.6,422.9v35.9   H-42.8v-35.9H113.6z M432.8,604.8H-42.8V578h475.5L432.8,604.8L432.8,604.8z"></path><path d="M-38.8,297.9h148.4c6.5,0,12.2-3.7,14.8-9.6c2.6-5.9,1.6-12.6-2.8-17.4l-58-63.6v-24.2c0-3.4-2.7-6.1-6.1-6.1H13.3   c-3.4,0-6.1,2.7-6.1,6.1v24.3l-58,63.6c-4.4,4.8-5.4,11.4-2.8,17.3C-51,294.2-45.3,297.9-38.8,297.9z M51.4,189.2v14.5h-32v-14.5   H51.4z M-41.7,279.2L16,215.8h38.7l57.7,63.4c1.6,1.7,1,3.5,0.7,4.2c-0.3,0.7-1.3,2.3-3.6,2.3H-38.8c-2.3,0-3.3-1.6-3.6-2.3   C-42.7,282.7-43.3,280.9-41.7,279.2z"></path><path d="M292.5,394.6c3.4,0,6.1-2.7,6.1-6.1v-63.3c0-3.4-2.7-6.1-6.1-6.1s-6.1,2.7-6.1,6.1v63.3   C286.3,391.9,289.1,394.6,292.5,394.6z"></path><path d="M292.5,437.7c-3.4,0-6.1,2.7-6.1,6.1V507c0,3.4,2.7,6.1,6.1,6.1s6.1-2.7,6.1-6.1v-63.3   C298.6,440.4,295.8,437.7,292.5,437.7z"></path><path d="M-23.4,446.6h18.8c3.4,0,6.1-2.7,6.1-6.1s-2.7-6.1-6.1-6.1h-18.8c-3.4,0-6.1,2.7-6.1,6.1S-26.8,446.6-23.4,446.6z"></path><path d="M26,446.6h18.8c3.4,0,6.1-2.7,6.1-6.1s-2.7-6.1-6.1-6.1H26c-3.4,0-6.1,2.7-6.1,6.1S22.6,446.6,26,446.6z"></path><path d="M75.4,446.6h18.8c3.4,0,6.1-2.7,6.1-6.1s-2.7-6.1-6.1-6.1H75.4c-3.4,0-6.1,2.7-6.1,6.1C69.3,443.9,72,446.6,75.4,446.6z"></path><path d="M12.4,485.6c-2.4-2.3-6.3-2.3-8.6,0.1L-24.9,515c-2.4,2.4-2.3,6.3,0.1,8.6c1.2,1.2,2.7,1.7,4.3,1.7s3.2-0.6,4.4-1.8   l28.6-29.2C14.8,491.8,14.8,488,12.4,485.6z"></path><path d="M59.1,486.3c-2.4-2.3-6.3-2.3-8.6,0.1l-55.9,57.1c-2.4,2.4-2.3,6.3,0.1,8.6c1.2,1.2,2.7,1.7,4.3,1.7s3.2-0.6,4.4-1.8   l55.9-57.1C61.6,492.5,61.5,488.7,59.1,486.3z"></path></g></svg>