<svg height='100px' width='100px'  fill="#721a1a" xmlns="http://www.w3.org/2000/svg" xmlns:xlink="http://www.w3.org/1999/xlink" version="1.1" x="0px" y="0px" viewBox="0 0 100 100" enable-background="new 0 0 100 100" xml:space="preserve"><path d="M39.108,59.779c1.326-0.084,2.133-0.456,2.988-0.699c3.418-0.972,6.903-1.319,10.428-0.531  c2.511,0.561,4.053,2.488,3.805,4.639c-0.19,1.647-1.14,2.815-3.056,3.359c-2.547,0.723-5.095,0.513-7.486-0.276  c-2.886-0.953-5.82-0.859-8.783-0.822c-1.043,0.013-1.963,0.321-2.508,1.135c-2.257,3.373-4.056,6.918-5.353,10.646  c-0.051,0.147,0.061,0.337,0.116,0.594c1.093-0.427,1.832-1.19,2.795-1.682c2.777-1.417,5.842-1.89,8.951-1.865  c3.142,0.025,5.465,1.481,6.814,3.946c0.689,1.259-0.063,3.413-1.51,4.227c-2.311,1.3-4.823,1.737-7.471,0.865  c-2.902-0.956-5.817-1.819-8.936-2.117c-1.729-0.165-2.161-0.083-2.471,1.464c-0.837,4.177-2.111,8.287-2.628,12.513  c-0.059,0.482-0.119,0.965-0.215,1.442c-0.072,0.359-0.199,0.794-0.713,0.768c-0.546-0.027-0.563-0.46-0.522-0.836  c0.184-1.69,0.039-3.398,0.411-5.079c0.316-1.429,0.611-2.863,0.864-4.301c0.257-1.461-0.796-2.778-2.49-3.101  c-1.338-0.256-2.664-0.191-3.942,0.306c-1.543,0.6-3.083,1.213-4.658,1.747c-1.916,0.65-3.842,0.598-5.326-0.714  c-1.575-1.392-2.453-2.963-1.648-5.105c0.783-2.084,2.282-3.264,4.584-3.881c1.009-0.271,2.013-0.591,3.048-0.748  c3.19-0.483,5.784,0.751,8.169,2.327c1.052,0.695,1.966,1.567,2.731,2.529c0.437,0.549,0.918,0.546,1.279-0.061  c1.271-2.136,2.097-4.39,1.96-6.806c-0.127-2.24-2.039-3.346-4.104-4.236c-1.828-0.788-3.775-1.385-5.326-2.584  c-1.484-1.148-2.844-2.349-3.131-4.184c-0.509-3.263,2.482-5.651,6.243-5.083c2.825,0.427,4.58,1.858,6.041,3.848  c1.659,2.259,2.549,4.691,2.836,7.569c1.093-1.173,1.77-2.325,2.213-3.468c0.348-0.896,0.807-1.655,1.505-2.308  c1.636-1.533,2.911-3.277,4.159-5.037c1.83-2.581,2.026-5.311,0.485-7.993c-1.429-2.486-2.636-5.086-4.757-7.264  c-1.695-1.74-1.366-3.756-0.51-5.697c0.572-1.296,2.649-2.274,4.279-2.195c4.765,0.231,6.8,1.653,7.978,5.688  c0.807,2.764,0.745,5.517-0.369,8.233c-0.203,0.494-0.547,0.977-0.471,1.565c0.66-0.097,0.919-0.547,1.271-0.896  c2.176-2.156,4.548-4.106,7.179-5.882c1.916-1.293,3.374-3.05,3.792-5.296c0.553-2.971,0.78-5.904-0.494-8.783  c-0.275-0.62-0.565-1.249-0.966-1.812c-0.671-0.942-1.083-1.962-1.506-2.993c-0.907-2.213-0.147-4.095,1.636-5.672  c2.584-2.286,4.859-2.14,7.86,0.274c1.867,1.502,1.603,3.461,1.618,5.41c0.025,3.143-1.607,5.861-2.743,8.711  c-0.202,0.508-0.445,1.004-0.814,1.829c3.108-2.189,5.458-4.478,7.222-7.216c0.893-1.386,1.781-2.77,2.056-4.358  c0.598-3.456-0.638-6.504-3.188-9.108c-1.999-2.041-4.001-4.06-5.871-6.199c-2.079-2.378,0.855-6.449,4.023-6.462  c2.157-0.009,3.972,0.418,5.54,1.803c2.453,2.166,3.868,4.749,4.631,7.633c0.367,1.387,0.155,2.785-0.268,4.142  c-1.019,3.269-1.924,6.572-3.659,9.643c-0.151,0.268-0.263,0.559-0.336,0.85c-0.055,0.221-0.251,0.446,0.007,0.773  c1.232-0.297,2.037-1.2,2.986-1.833c2.031-1.355,4.365-2.01,6.776-2.447c4.223-0.767,8.27,2.597,7.61,6.243  c-0.365,2.019-2.144,2.958-4.147,3.505c-3.329,0.909-6.766,1.272-10.27,0.969c-2.642-0.228-5.204,0.265-7.77,0.676  c-0.861,0.138-1.488,0.656-2.097,1.181c-1.691,1.46-3.227,3.042-4.993,4.448c-1.002,0.798-1.557,1.98-3.058,2.667  c1.13,0.258,1.729-0.234,2.384-0.487c4.13-1.596,9.574-0.777,12.366,2.885c1.949,2.557,0.558,5.22-2.937,5.865  c-1.956,0.361-3.608-0.176-5.339-0.641c-1.749-0.47-3.45-1.048-5.254-1.393c-4.269-0.815-7.973,0.376-10.964,2.751  C44.596,53.751,41.93,56.611,39.108,59.779z M41.894,53.519c0.508-0.321,0.668-0.369,0.716-0.46c1.875-3.582,3.163-7.3,2.564-11.257  c-0.3-1.982-1.113-3.928-3.491-4.916c-1.497-0.622-3.02-0.6-4.444,0.169c-1.39,0.75-1.219,1.922-1.026,3.09  c0.101,0.61,0.314,1.183,0.636,1.726c0.802,1.35,1.57,2.717,2.44,4.035C40.801,48.193,41.74,50.628,41.894,53.519z M69.16,31.799  c1.112,0.37,2.076-0.11,3.01,0.02c2.762,0.386,5.48,0.024,8.207-0.24c2.654-0.257,4.795-1.376,6.477-3.086  c1.607-1.635,1.019-3.232-1.356-3.922c-1.646-0.478-3.304-0.427-4.984-0.025C75.652,25.71,72.421,28.694,69.16,31.799z   M73.464,17.915c0.657-1.591,0.903-2.927,0.964-4.213c0.191-3.998-1.358-7.346-5.568-9.482c-1.867-0.947-4.513,0.003-5.051,1.781  c-0.438,1.445,0.181,2.535,1.371,3.573C68.071,12.095,71.24,14.418,73.464,17.915z M61.297,33.724  c0.498-1.437,1.343-2.625,1.888-3.915c1.1-2.605,1.217-5.293,0.749-8.012c-0.253-1.469-1.568-2.129-2.98-2.529  c-1.255-0.355-2.373-0.046-3.415,0.847c-1.602,1.373-1.835,2.805-1.257,4.615C57.32,27.972,59.937,30.547,61.297,33.724z   M24.842,83.407c-2.12-4.921-7.32-7.247-12.669-5.836c-1.143,0.302-2.005,0.891-2.689,1.884c-0.793,1.149-0.479,2.209-0.416,3.332  c0.091,1.619,1.136,2.417,2.835,1.898c1.25-0.382,2.534-0.685,3.77-1.149C18.557,82.451,21.57,82.028,24.842,83.407z M53.608,47.077  c2.192-0.262,4.285-0.4,6.365,0.203c1.927,0.559,3.856,1.115,5.794,1.647c0.872,0.239,1.742,0.506,2.686,0.476  c2.347-0.077,3.304-1.312,2.535-3.189c-1.391-3.398-4.742-4.084-7.771-3.712C59.379,42.972,56.387,44.882,53.608,47.077z   M28.529,70.376c0.261-2.884-0.381-5.593-1.679-8.158c-0.66-1.304-1.941-2.216-3.51-2.759c-1.727-0.597-4.327,0.015-5.381,1.253  c-0.861,1.012-0.532,2.621,0.733,4.004c0.991,1.083,2.383,1.68,3.67,2.42C24.337,68.27,26.736,68.82,28.529,70.376z M36.661,63.973  c0.472,0.154,0.954,0.047,1.433-0.01c2.114-0.252,4.125-0.228,6.174,0.583c1.701,0.674,3.614,1.003,5.514,1.167  c2.748,0.237,4.628-1.446,4.013-3.651c-0.381-1.369-1.644-2.118-3.142-2.396c-5.072-0.943-9.435,0.445-13.326,3.187  C36.96,63.111,36.63,63.451,36.661,63.973z M29.658,79.925c3.765,0.179,6.821,1.371,9.931,2.46c2.066,0.723,4.046,0.23,5.781-0.891  c1.139-0.736,1.482-1.977,0.829-2.905c-0.879-1.248-2.071-2.082-3.893-2.2c-2.969-0.193-5.781,0.264-8.401,1.422  C32.574,78.401,31.074,78.79,29.658,79.925z"></path></svg>