<svg height='100px' width='100px'  fill="#ffffff" xmlns="http://www.w3.org/2000/svg" xmlns:xlink="http://www.w3.org/1999/xlink" version="1.1" x="0px" y="0px" viewBox="0 0 100 100" enable-background="new 0 0 100 100" xml:space="preserve"><g><path d="M31.174,21.407c1.383,0.899,2.982,1.374,4.625,1.374c1.188,0,2.39-0.256,3.476-0.739l0.888-0.396l0.001-0.972   c0.005-2.897-1.44-5.569-3.867-7.146c-2.382-1.548-5.514-1.787-8.101-0.634l-0.887,0.396l-0.001,0.972   C27.303,17.158,28.748,19.83,31.174,21.407z M34.663,16.043c1.275,0.829,2.132,2.126,2.406,3.59   c-1.456,0.342-3.006,0.074-4.259-0.74c-1.275-0.83-2.132-2.127-2.407-3.591C31.857,14.959,33.408,15.228,34.663,16.043z"></path><path d="M41.671,16.229c0.322,0.064,0.652,0.098,0.98,0.098c1.747,0,3.46-0.921,4.701-2.526l0.455-0.587l-0.192-0.718   c-0.632-2.363-2.239-4.021-4.299-4.437c-2.032-0.405-4.205,0.522-5.68,2.429l-0.455,0.588l0.192,0.717   C38.004,14.156,39.612,15.814,41.671,16.229z M42.723,11.001c0.723,0.146,1.339,0.703,1.729,1.538   c-0.679,0.615-1.462,0.897-2.189,0.749c-0.722-0.146-1.338-0.702-1.728-1.537C41.214,11.136,42.002,10.854,42.723,11.001z"></path><path d="M53.806,15.077c0.44,0.077,0.89,0.115,1.335,0.115c2.145,0,4.214-0.906,5.678-2.486l0.66-0.712L61.098,11.1   c-1.033-2.429-3.201-4.148-5.799-4.601c-2.566-0.449-5.246,0.462-7.012,2.37l-0.66,0.713l0.38,0.894   C49.04,12.904,51.208,14.624,53.806,15.077z M54.785,9.454c1.239,0.216,2.319,0.904,3.035,1.902   c-1.008,0.692-2.273,0.977-3.5,0.766c-1.24-0.217-2.32-0.904-3.036-1.902C52.292,9.527,53.557,9.242,54.785,9.454z"></path><path d="M60.033,16.09c-2.527,1.454-4.129,4.063-4.283,6.978l-0.052,0.971l0.864,0.443c1.209,0.621,2.566,0.949,3.924,0.949   c1.49,0,2.965-0.395,4.262-1.142c2.529-1.453,4.131-4.062,4.285-6.978l0.051-0.971l-0.864-0.443   C65.684,14.596,62.515,14.664,60.033,16.09z M63.253,21.688c-1.312,0.756-2.914,0.938-4.357,0.51   c0.356-1.47,1.295-2.738,2.634-3.508c1.313-0.755,2.914-0.938,4.357-0.51C65.531,19.65,64.592,20.919,63.253,21.688z"></path><path d="M69.021,14.434L69.021,14.434c0.493,0,0.989-0.043,1.475-0.128l0.957-0.167l0.239-0.941c0.72-2.83-0.034-5.797-2.016-7.937   c-1.95-2.105-4.933-3.106-7.759-2.616l-0.957,0.167l-0.239,0.941c-0.72,2.83,0.034,5.797,2.015,7.936   C64.352,13.433,66.643,14.433,69.021,14.434z M63.467,5.518c1.539,0.02,2.961,0.651,4.009,1.782   c1.05,1.133,1.569,2.624,1.472,4.133c-1.54-0.02-2.961-0.65-4.01-1.782C63.889,8.518,63.369,7.026,63.467,5.518z"></path><path d="M91.334,7.924l-18.77,7.622l1.129,2.779l18.769-7.622c0.898-0.364,1.602-1.059,1.979-1.954   c0.379-0.896,0.387-1.884,0.018-2.79c-0.754-1.857-2.879-2.754-4.736-2.001l-16.793,6.82l1.129,2.779l16.793-6.82   c0.324-0.129,0.696,0.025,0.832,0.357C91.815,7.42,91.658,7.792,91.334,7.924z"></path><path d="M46.395,16.491c-2.75,0.902-4.833,3.113-5.571,5.915l-0.248,0.939l0.756,0.61c1.511,1.22,3.409,1.892,5.343,1.892   c0.898,0,1.789-0.143,2.648-0.425c2.75-0.901,4.833-3.112,5.572-5.915l0.248-0.938l-0.756-0.61   C52.174,16.173,49.107,15.604,46.395,16.491z M48.388,22.572c-1.426,0.469-3.001,0.32-4.306-0.377   c0.641-1.345,1.802-2.379,3.248-2.854c1.428-0.467,3.002-0.319,4.308,0.378C50.995,21.064,49.834,22.098,48.388,22.572z"></path><path d="M96.557,92.091l-1.842-25.039c0.002-0.041,0.01-0.08,0.01-0.122c-0.008-2.238-2.854-3.407-5.97-4.019l3.905-32.225   c0.074-0.22,0.097-0.447,0.097-0.684c0-0.534-0.002-1.094-0.914-1.642v-6.506c0-2.604-2.118-4.722-4.723-4.722   s-4.723,2.118-4.723,4.722v4.582c-1.751-0.175-3.798-0.342-6.192-0.498c0.218-1.619-0.018-3.291-0.747-4.823l-0.417-0.877   l-0.973,0.022c-2.918,0.066-5.574,1.59-7.104,4.074c-1.336,2.172-1.614,4.816-0.81,7.214c-1.102,0.039-2.227,0.074-3.394,0.104   c-0.234-2.286-1.362-4.187-3.148-5.205c-2.164-1.236-4.905-0.998-7.333,0.636L51.664,27.5l-0.044,0.741   c-0.075,1.289,0.128,2.504,0.563,3.567c-0.699,0.003-1.393,0.007-2.107,0.007c-0.271,0-0.53-0.002-0.799-0.003l-0.152-0.638   c-0.567-2.379-2.129-4.079-4.179-4.55c-2.016-0.463-4.222,0.414-5.743,2.274l-0.47,0.574l0.172,0.723   c0.129,0.541,0.315,1.041,0.541,1.506c-2.399-0.052-4.677-0.119-6.814-0.201c1.983-0.445,3.778-1.59,5.004-3.26l0.575-0.782   l-0.479-0.845c-1.429-2.521-4.006-4.128-6.896-4.299c-2.897-0.172-5.655,1.146-7.353,3.457l-0.153,0.208   c-2.139,0.145-3.991,0.298-5.594,0.458v-4.583c0-2.604-2.119-4.722-4.723-4.722s-4.723,2.118-4.723,4.722v6.517   c-0.893,0.545-0.896,1.101-0.896,1.631c0,0.184,0.014,0.361,0.054,0.534l2.68,21.992L9.23,52.278   c-1.694-0.473-3.445,0.498-3.991,2.209L3.57,59.706c-0.261,0.816-0.176,1.688,0.238,2.455c0.422,0.783,1.155,1.368,2.009,1.605   l5.883,1.64l0.338,2.778c0.003,0.018,0.003,0.035,0.006,0.053l1.133,9.299c1.05,6.834,24.408,8.662,36.899,8.662   c4.483,0,8.84-0.182,12.978-0.529c0.818,0.807,1.771,1.455,2.839,1.941l-0.297,4.402h-0.002c-0.057,0.572,0.035,1.43,0.793,2.26   c2.875,3.154,14.373,3.205,14.707,3.205c0.004,0,0.006,0,0.008,0c1.585-0.01,15.492-0.244,15.478-5.387H96.557z M80.98,68.744   l-0.234,0.001c-5.639,0-9.182-1.002-10.275-1.692c1.104-0.717,4.722-1.771,10.502-1.801l0.234-0.001   c5.639,0,9.182,1.002,10.275,1.692C90.379,67.66,86.761,68.714,80.98,68.744z M24.325,56.481l-0.42-4.443   c2.544,0.429,5.255,0.773,8.003,1.047l0.263,5.582L24.325,56.481z M12.23,44.83h-0.016l-0.453-3.718   c7.74,4.012,26.998,5.192,38.329,5.192c11.307,0,30.509-1.175,38.281-5.166l-0.447,3.691h-0.09c0,1.837-12.861,6.142-37.802,6.142   S12.23,46.667,12.23,44.83z M19.202,33.7c0.2,2.251,0.413,4.582,0.63,6.952c-5.438-1.194-8.347-2.544-8.443-3.489H11.28   l-0.566-4.645C12.469,32.946,15.145,33.337,19.202,33.7z M30.991,34.44c0.135,2.566,0.271,5.236,0.405,7.98   c-3.197-0.326-6.039-0.724-8.497-1.16c-0.23-2.498-0.452-4.943-0.664-7.313C24.91,34.144,27.852,34.308,30.991,34.44z    M42.863,43.181c-3.021-0.104-5.839-0.27-8.45-0.483c-0.137-2.798-0.274-5.523-0.412-8.144c2.791,0.096,5.712,0.165,8.719,0.208   C42.768,37.468,42.815,40.286,42.863,43.181z M66.15,34.555c-0.141,2.62-0.291,5.347-0.447,8.147   c-2.601,0.213-5.405,0.377-8.411,0.48c0.047-2.895,0.094-5.713,0.141-8.421C60.439,34.719,63.36,34.649,66.15,34.555z    M89.415,32.524l-0.562,4.639h-0.063c-0.096,0.946-3.015,2.299-8.47,3.494c0.218-2.361,0.429-4.691,0.63-6.957   C84.99,33.339,87.66,32.95,89.415,32.524z M77.253,41.265c-2.468,0.438-5.319,0.836-8.53,1.162   c0.153-2.746,0.301-5.418,0.438-7.986c3.14-0.133,6.082-0.297,8.757-0.493C77.705,36.331,77.482,38.776,77.253,41.265z    M85.868,60.528c0,0.185-0.473,0.891-2.437,1.78c-0.986-0.048-1.781-0.058-2.225-0.058l-0.25,0.001   c-0.346,0.002-1.354,0.016-2.674,0.103l1.032-10.915c3.257-0.691,6.087-1.548,8.124-2.606l-1.418,11.695H85.868z M35.214,59.514   l-0.29-6.157c2.768,0.223,5.516,0.378,8.109,0.477l0.125,7.893L35.214,59.514z M46.173,62.565l-0.137-8.642   c1.41,0.032,2.754,0.048,3.996,0.048c1.27,0,2.645-0.016,4.089-0.05l-0.168,10.81L46.173,62.565z M57.123,53.829   c2.553-0.098,5.254-0.251,7.975-0.47l-0.73,12.72c-1.448,0.125-2.934,0.229-4.444,0.314l-2.981-0.83L57.123,53.829z M67.611,65.757   c-0.074,0.008-0.148,0.017-0.223,0.024l0.729-12.692c2.793-0.277,5.549-0.629,8.13-1.066l-1.006,10.637   C72.131,63.086,68.729,63.963,67.611,65.757z M85.397,21.855c0-0.949,0.772-1.722,1.723-1.722s1.723,0.772,1.723,1.722v5.502   c-0.917-0.197-2.048-0.391-3.445-0.576V21.855z M69.521,25.908c0.81-1.316,2.106-2.217,3.587-2.528   c0.389,1.462,0.169,3.025-0.641,4.341c-0.801,1.303-2.105,2.21-3.586,2.526C68.496,28.784,68.718,27.214,69.521,25.908z    M75.021,29.292c0.082-0.132,0.145-0.271,0.218-0.407c5.698,0.356,9.264,0.769,11.455,1.124c-2.862,0.445-7.388,0.885-13.326,1.219   C74.004,30.67,74.57,30.028,75.021,29.292z M54.618,29.185c1.256-0.633,2.529-0.688,3.509-0.131   c0.871,0.497,1.439,1.464,1.619,2.67c-1.313,0.025-2.67,0.044-4.055,0.059C55.08,31.163,54.692,30.259,54.618,29.185z    M54.432,34.796c-0.047,2.725-0.095,5.559-0.142,8.467c-1.364,0.027-2.763,0.042-4.2,0.042c-1.447,0-2.853-0.015-4.225-0.042   c-0.048-2.91-0.096-5.745-0.143-8.467c1.437,0.013,2.89,0.02,4.354,0.02C51.541,34.815,52.994,34.809,54.432,34.796z    M42.069,30.239c0.696-0.595,1.496-0.855,2.207-0.69c0.719,0.165,1.319,0.739,1.687,1.583c-0.385,0.331-0.802,0.545-1.219,0.654   c-0.369-0.004-0.749-0.006-1.113-0.012C42.97,31.573,42.414,31.033,42.069,30.239z M13.449,30.007   c2.27-0.363,5.818-0.759,11.045-1.095c0.999,1.106,2.259,1.933,3.673,2.389C21.538,30.959,16.527,30.487,13.449,30.007z    M30.661,25.311c1.519,0.09,2.905,0.794,3.868,1.93c-1.089,1.009-2.546,1.557-4.068,1.463c-1.519-0.089-2.905-0.793-3.868-1.929   C27.682,25.765,29.142,25.22,30.661,25.311z M11.293,21.855c0-0.949,0.773-1.722,1.723-1.722s1.723,0.772,1.723,1.722v4.928   c-1.396,0.186-2.53,0.379-3.445,0.577V21.855z M12.707,48.874c2.049,1.049,4.878,1.899,8.131,2.584l0.393,4.162l-7.972-2.22   L12.707,48.874z M32.99,75.812c0.11,2.217,0.22,4.384,0.33,6.483c-2.491-0.292-4.723-0.64-6.688-1.021   c-0.188-2.094-0.383-4.236-0.584-6.424C28.265,75.24,30.614,75.556,32.99,75.812z M36.008,76.104   c2.521,0.216,5.023,0.368,7.389,0.466c0.037,2.227,0.074,4.4,0.111,6.5c-2.561-0.101-4.951-0.258-7.168-0.461   C36.23,80.503,36.119,78.331,36.008,76.104z M15.01,67.776l-0.183-1.498l25.779,7.184C24.57,72.583,15.656,69.583,15.01,67.776z    M16.166,77.267l-0.671-5.508c1.925,1.003,4.516,1.822,7.484,2.482c0.2,2.16,0.394,4.287,0.581,6.361   C19.019,79.48,16.499,78.212,16.166,77.267z M46.512,83.16c-0.038-2.097-0.075-4.27-0.112-6.493c1.279,0.031,2.5,0.046,3.629,0.046   c0.734,0,1.46-0.008,2.184-0.017l1.541,0.43c-0.033,2.061-0.068,4.08-0.102,6.033c-1.182,0.025-2.374,0.039-3.576,0.039   C48.855,83.198,47.67,83.185,46.512,83.16z M56.735,78.315c1.815,1.043,3.313,2.597,4.272,4.503   c-1.43,0.101-2.879,0.185-4.354,0.245C56.682,81.517,56.709,79.931,56.735,78.315z M63.727,81.542   c-1.734-3.503-4.883-6.112-8.638-7.158l-2.424-0.676v-0.016c-0.019,0-0.037,0-0.056,0L6.621,60.876   c-0.072-0.02-0.137-0.072-0.174-0.14c-0.024-0.044-0.031-0.084-0.02-0.117l1.669-5.218c0.047-0.146,0.182-0.27,0.328-0.233   L66.98,71.474l-0.865,12.849C65.11,83.646,64.31,82.718,63.727,81.542z M68.588,92.229l1.449-21.495l0.141-0.504   c1.511,0.608,3.4,0.976,5.188,1.193c-0.068,3.55-0.137,7.284-0.206,11.032c-0.072,3.953-0.145,7.893-0.217,11.615   C71.844,93.664,69.067,92.991,68.588,92.229z M81.083,94.478c-0.943,0.014-2.025-0.025-3.146-0.104   c0.074-3.795,0.148-7.823,0.222-11.863c0.068-3.677,0.135-7.342,0.203-10.832c1.06,0.056,1.918,0.066,2.385,0.066l0.25-0.001   c0.342-0.002,1.33-0.015,2.627-0.1c0.096,3.509,0.191,7.12,0.287,10.737c0.106,4.046,0.213,8.086,0.32,11.974   C83.245,94.425,82.2,94.47,81.083,94.478z M87.223,94.041c-0.104-3.815-0.209-7.773-0.313-11.738   c-0.098-3.69-0.194-7.376-0.292-10.952c1.836-0.248,3.782-0.65,5.31-1.306l1.616,21.98C93.062,92.632,90.841,93.517,87.223,94.041z   "></path></g></svg>